<svg width="23" height="23" fill="none" xmlns="http://www.w3.org/2000/svg"><path d="M11.5 2.07c3.073 0 3.437.014 4.645.068 1.123.05 1.73.238 2.134.396.534.206.92.458 1.32.858.405.404.652.786.858 1.32.158.405.346 1.016.396 2.134.054 1.213.067 1.577.067 4.645 0 3.073-.013 3.437-.067 4.645-.05 1.123-.238 1.73-.396 2.134a3.55 3.55 0 0 1-.858 1.32 3.536 3.536 0 0 1-1.32.858c-.405.158-1.015.346-2.134.396-1.213.054-1.577.067-4.645.067-3.073 0-3.437-.013-4.645-.067-1.123-.05-1.73-.238-2.134-.396a3.556 3.556 0 0 1-1.32-.858 3.537 3.537 0 0 1-.858-1.32c-.158-.405-.346-1.015-.396-2.134-.054-1.213-.067-1.577-.067-4.645 0-3.073.013-3.437.067-4.645.05-1.123.238-1.73.396-2.134a3.55 3.55 0 0 1 .858-1.32 3.537 3.537 0 0 1 1.32-.858c.405-.158 1.016-.346 2.134-.396 1.208-.054 1.572-.067 4.645-.067Zm0-2.07C8.378 0 7.987.013 6.76.067 5.54.121 4.7.32 3.972.602a5.613 5.613 0 0 0-2.04 1.33A5.635 5.635 0 0 0 .603 3.967c-.283.732-.48 1.567-.535 2.79C.013 7.986 0 8.376 0 11.5c0 3.122.013 3.513.067 4.74.054 1.221.252 2.061.535 2.789.296.76.687 1.401 1.33 2.04a5.623 5.623 0 0 0 2.035 1.325c.732.283 1.567.48 2.79.534 1.226.054 1.616.067 4.739.067 3.122 0 3.512-.013 4.739-.067 1.222-.054 2.062-.251 2.79-.534a5.623 5.623 0 0 0 2.034-1.326 5.621 5.621 0 0 0 1.326-2.035c.283-.732.48-1.567.534-2.79.054-1.226.067-1.616.067-4.738 0-3.123-.013-3.513-.067-4.74-.054-1.222-.251-2.062-.534-2.79a5.387 5.387 0 0 0-1.317-2.043A5.621 5.621 0 0 0 19.033.606c-.732-.283-1.567-.48-2.79-.534C15.014.013 14.624 0 11.5 0Z" fill="#C67A88"/><path d="M11.5 5.593A5.909 5.909 0 0 0 5.593 11.5a5.909 5.909 0 0 0 5.907 5.907 5.909 5.909 0 0 0 5.907-5.907A5.909 5.909 0 0 0 11.5 5.593Zm0 9.739a3.832 3.832 0 1 1 .001-7.665 3.832 3.832 0 0 1-.001 7.665Zm7.52-9.972a1.38 1.38 0 1 1-2.759-.001 1.38 1.38 0 0 1 2.759 0Z" fill="#C67A88"/></svg>